Fellini's Casanova (1976)
 
http://www.imdb.com/title/tt0074291/

Casanova is a libertine, collecting seductions and sexual feats. But he is really interested in someone, and is he really an interesting person. Is he really alive? 


Format                                   : Matroska
Format version                           : Version 2
File size                                : 7.92 GiB
Duration                                 : 2h 34mn
Overall bit rate                         : 7 364 Kbps
Video
ID                                       : 1
Format                                   : AVC
Format profile                           : High@L4.1
Codec ID                                 : V_MPEG4/ISO/AVC
Duration                                 : 2h 34mn
Bit rate                                 : 6 466 Kbps
Width                                    : 1 280 pixels
Height                                   : 694 pixels
Display aspect ratio                     : 16:9
Frame rate                               : 24.000 fps
Color space                              : YUV
Audio #1
ID                                       : 2
Format                                   : AC-3
Format/Info                              : Audio Coding 3
Mode extension                           : CM (complete main)
Codec ID                                 : A_AC3
Duration                                 : 2h 34mn
Bit rate mode                            : Constant
Bit rate                                 : 448 Kbps
Channel(s)                               : 1 channel
Sampling rate                            : 48.0 KHz
Bit depth                                : 16 bits
Compression mode                         : Lossy
Stream size                              : 494 MiB (6%)
Language                                 : Italian
Default                                  : Yes
Forced                                   : No
Audio #2
ID                                       : 3
Format                                   : AC-3
Format/Info                              : Audio Coding 3
Mode extension                           : CM (complete main)
Codec ID                                 : A_AC3
Duration                                 : 2h 34mn
Bit rate mode                            : Constant
Bit rate                                 : 448 Kbps
Channel(s)                               : 1 channel
Sampling rate                            : 48.0 KHz
Bit depth                                : 16 bits
Compression mode                         : Lossy
Stream size                              : 494 MiB (6%)
Language                                 : English
Default                                  : No
Forced                                   : No